<svg width="48" height="48" viewBox="0 0 48 48" fill="none" xmlns="http://www.w3.org/2000/svg">
<g id="arrow-up 1">
<path id="Vector" d="M35.42 25.42L25.42 35.42C25.2298 35.602 25.0055 35.7448 24.76 35.84C24.2731 36.04 23.7269 36.04 23.24 35.84C22.9945 35.7448 22.7702 35.602 22.58 35.42L12.58 25.42C12.3935 25.2335 12.2456 25.0121 12.1447 24.7685C12.0438 24.5248 11.9918 24.2637 11.9918 24C11.9918 23.4674 12.2034 22.9566 12.58 22.58C12.9566 22.2034 13.4674 21.9918 14 21.9918C14.5326 21.9918 15.0434 22.2034 15.42 22.58L22 29.18V14C22 13.4695 22.2107 12.9608 22.5858 12.5857C22.9609 12.2107 23.4696 12 24 12C24.5304 12 25.0391 12.2107 25.4142 12.5857C25.7893 12.9608 26 13.4695 26 14V29.18L32.58 22.58C32.7659 22.3925 32.9871 22.2437 33.2309 22.1422C33.4746 22.0406 33.736 21.9884 34 21.9884C34.264 21.9884 34.5254 22.0406 34.7692 22.1422C35.0129 22.2437 35.2341 22.3925 35.42 22.58C35.6075 22.7659 35.7563 22.9871 35.8578 23.2308C35.9593 23.4745 36.0116 23.7359 36.0116 24C36.0116 24.264 35.9593 24.5254 35.8578 24.7691C35.7563 25.0128 35.6075 25.234 35.42 25.42Z" fill="#1D1D1F"/>
</g>
</svg>
