<svg width="801" height="12" viewBox="0 0 801 12" fill="none" xmlns="http://www.w3.org/2000/svg">
<path fill-rule="evenodd" clip-rule="evenodd" d="M405.566 0L416.133 10.1395L414.194 12L405.566 3.72108L396.939 12L395 10.1395L405.566 0Z" fill="#F1BF42"/>
<path fill-rule="evenodd" clip-rule="evenodd" d="M422.674 0L433.24 10.1395L431.301 12L422.674 3.72108L414.046 12L412.107 10.1395L422.674 0Z" fill="#F1BF42"/>
<path fill-rule="evenodd" clip-rule="evenodd" d="M439.781 0L450.348 10.1395L448.409 12L439.781 3.72108L431.154 12L429.215 10.1395L439.781 0Z" fill="#F1BF42"/>
<path fill-rule="evenodd" clip-rule="evenodd" d="M456.889 0L467.455 10.1395L465.516 12L456.889 3.72108L448.261 12L446.322 10.1395L456.889 0Z" fill="#F1BF42"/>
<path fill-rule="evenodd" clip-rule="evenodd" d="M473.996 0L484.562 10.1395L482.624 12L473.996 3.72108L465.369 12L463.43 10.1395L473.996 0Z" fill="#F1BF42"/>
<path fill-rule="evenodd" clip-rule="evenodd" d="M491.103 0L501.67 10.1395L499.731 12L491.103 3.72108L482.476 12L480.537 10.1395L491.103 0Z" fill="#F1BF42"/>
<path fill-rule="evenodd" clip-rule="evenodd" d="M508.211 0L518.777 10.1395L516.838 12L508.211 3.72108L499.583 12L497.645 10.1395L508.211 0Z" fill="#F1BF42"/>
<path fill-rule="evenodd" clip-rule="evenodd" d="M525.318 0L535.885 10.1395L533.946 12L525.318 3.72108L516.691 12L514.752 10.1395L525.318 0Z" fill="#F1BF42"/>
<path fill-rule="evenodd" clip-rule="evenodd" d="M542.426 0L552.992 10.1395L551.053 12L542.426 3.72108L533.798 12L531.859 10.1395L542.426 0Z" fill="#F1BF42"/>
<path fill-rule="evenodd" clip-rule="evenodd" d="M559.533 0L570.1 10.1395L568.161 12L559.533 3.72108L550.906 12L548.967 10.1395L559.533 0Z" fill="#F1BF42"/>
<path fill-rule="evenodd" clip-rule="evenodd" d="M576.641 0L587.207 10.1395L585.268 12L576.641 3.72108L568.013 12L566.074 10.1395L576.641 0Z" fill="#F1BF42"/>
<path fill-rule="evenodd" clip-rule="evenodd" d="M593.748 0L604.314 10.1395L602.375 12L593.748 3.72108L585.121 12L583.182 10.1395L593.748 0Z" fill="#F1BF42"/>
<path fill-rule="evenodd" clip-rule="evenodd" d="M610.932 0L621.498 10.1395L619.559 12L610.932 3.72108L602.304 12L600.365 10.1395L610.932 0Z" fill="#F1BF42"/>
<path fill-rule="evenodd" clip-rule="evenodd" d="M628.039 0L638.605 10.1395L636.667 12L628.039 3.72108L619.412 12L617.473 10.1395L628.039 0Z" fill="#F1BF42"/>
<path fill-rule="evenodd" clip-rule="evenodd" d="M645.146 0L655.713 10.1395L653.774 12L645.146 3.72108L636.519 12L634.58 10.1395L645.146 0Z" fill="#F1BF42"/>
<path fill-rule="evenodd" clip-rule="evenodd" d="M662.254 0L672.82 10.1395L670.881 12L662.254 3.72108L653.626 12L651.688 10.1395L662.254 0Z" fill="#F1BF42"/>
<path fill-rule="evenodd" clip-rule="evenodd" d="M679.361 0L689.928 10.1395L687.989 12L679.361 3.72108L670.734 12L668.795 10.1395L679.361 0Z" fill="#F1BF42"/>
<path fill-rule="evenodd" clip-rule="evenodd" d="M696.469 0L707.035 10.1395L705.096 12L696.469 3.72108L687.841 12L685.902 10.1395L696.469 0Z" fill="#F1BF42"/>
<path fill-rule="evenodd" clip-rule="evenodd" d="M713.576 0L724.142 10.1395L722.204 12L713.576 3.72108L704.949 12L703.01 10.1395L713.576 0Z" fill="#F1BF42"/>
<path fill-rule="evenodd" clip-rule="evenodd" d="M730.684 0L741.25 10.1395L739.311 12L730.684 3.72108L722.056 12L720.117 10.1395L730.684 0Z" fill="#F1BF42"/>
<path fill-rule="evenodd" clip-rule="evenodd" d="M747.791 0L758.357 10.1395L756.418 12L747.791 3.72108L739.163 12L737.225 10.1395L747.791 0Z" fill="#F1BF42"/>
<path fill-rule="evenodd" clip-rule="evenodd" d="M764.898 0L775.465 10.1395L773.526 12L764.898 3.72108L756.271 12L754.332 10.1395L764.898 0Z" fill="#F1BF42"/>
<path fill-rule="evenodd" clip-rule="evenodd" d="M782.006 0L792.572 10.1395L790.633 12L782.006 3.72108L773.378 12L771.439 10.1395L782.006 0Z" fill="#F1BF42"/>
<path d="M799.113 3.72108L790.486 12L788.547 10.1395L799.113 0L801 1.81033L799.113 3.72108Z" fill="#F1BF42"/>
<path fill-rule="evenodd" clip-rule="evenodd" d="M10.5664 0L21.1327 10.1395L19.1939 12L10.5664 3.72108L1.93887 12L0 10.1395L10.5664 0Z" fill="#F1BF42"/>
<path fill-rule="evenodd" clip-rule="evenodd" d="M27.6738 0L38.2401 10.1395L36.3013 12L27.6738 3.72108L19.0463 12L17.1074 10.1395L27.6738 0Z" fill="#F1BF42"/>
<path fill-rule="evenodd" clip-rule="evenodd" d="M44.7812 0L55.3476 10.1395L53.4087 12L44.7812 3.72108L36.1537 12L34.2148 10.1395L44.7812 0Z" fill="#F1BF42"/>
<path fill-rule="evenodd" clip-rule="evenodd" d="M61.8886 0L72.455 10.1395L70.5161 12L61.8886 3.72108L53.2611 12L51.3223 10.1395L61.8886 0Z" fill="#F1BF42"/>
<path fill-rule="evenodd" clip-rule="evenodd" d="M78.996 0L89.5624 10.1395L87.6235 12L78.996 3.72108L70.3686 12L68.4297 10.1395L78.996 0Z" fill="#F1BF42"/>
<path fill-rule="evenodd" clip-rule="evenodd" d="M96.1035 0L106.67 10.1395L104.731 12L96.1035 3.72108L87.476 12L85.5371 10.1395L96.1035 0Z" fill="#F1BF42"/>
<path fill-rule="evenodd" clip-rule="evenodd" d="M113.211 0L123.777 10.1395L121.838 12L113.211 3.72108L104.583 12L102.645 10.1395L113.211 0Z" fill="#F1BF42"/>
<path fill-rule="evenodd" clip-rule="evenodd" d="M130.318 0L140.885 10.1395L138.946 12L130.318 3.72108L121.691 12L119.752 10.1395L130.318 0Z" fill="#F1BF42"/>
<path fill-rule="evenodd" clip-rule="evenodd" d="M147.426 0L157.992 10.1395L156.053 12L147.426 3.72108L138.798 12L136.859 10.1395L147.426 0Z" fill="#F1BF42"/>
<path fill-rule="evenodd" clip-rule="evenodd" d="M164.533 0L175.1 10.1395L173.161 12L164.533 3.72108L155.906 12L153.967 10.1395L164.533 0Z" fill="#F1BF42"/>
<path fill-rule="evenodd" clip-rule="evenodd" d="M181.641 0L192.207 10.1395L190.268 12L181.641 3.72108L173.013 12L171.074 10.1395L181.641 0Z" fill="#F1BF42"/>
<path fill-rule="evenodd" clip-rule="evenodd" d="M198.748 0L209.314 10.1395L207.375 12L198.748 3.72108L190.121 12L188.182 10.1395L198.748 0Z" fill="#F1BF42"/>
<path fill-rule="evenodd" clip-rule="evenodd" d="M215.932 0L226.498 10.1395L224.559 12L215.932 3.72108L207.304 12L205.365 10.1395L215.932 0Z" fill="#F1BF42"/>
<path fill-rule="evenodd" clip-rule="evenodd" d="M233.039 0L243.605 10.1395L241.667 12L233.039 3.72108L224.412 12L222.473 10.1395L233.039 0Z" fill="#F1BF42"/>
<path fill-rule="evenodd" clip-rule="evenodd" d="M250.146 0L260.713 10.1395L258.774 12L250.146 3.72108L241.519 12L239.58 10.1395L250.146 0Z" fill="#F1BF42"/>
<path fill-rule="evenodd" clip-rule="evenodd" d="M267.254 0L277.82 10.1395L275.881 12L267.254 3.72108L258.626 12L256.688 10.1395L267.254 0Z" fill="#F1BF42"/>
<path fill-rule="evenodd" clip-rule="evenodd" d="M284.361 0L294.928 10.1395L292.989 12L284.361 3.72108L275.734 12L273.795 10.1395L284.361 0Z" fill="#F1BF42"/>
<path fill-rule="evenodd" clip-rule="evenodd" d="M301.469 0L312.035 10.1395L310.096 12L301.469 3.72108L292.841 12L290.902 10.1395L301.469 0Z" fill="#F1BF42"/>
<path fill-rule="evenodd" clip-rule="evenodd" d="M318.576 0L329.142 10.1395L327.204 12L318.576 3.72108L309.949 12L308.01 10.1395L318.576 0Z" fill="#F1BF42"/>
<path fill-rule="evenodd" clip-rule="evenodd" d="M335.684 0L346.25 10.1395L344.311 12L335.684 3.72108L327.056 12L325.117 10.1395L335.684 0Z" fill="#F1BF42"/>
<path fill-rule="evenodd" clip-rule="evenodd" d="M352.791 0L363.357 10.1395L361.418 12L352.791 3.72108L344.163 12L342.225 10.1395L352.791 0Z" fill="#F1BF42"/>
<path fill-rule="evenodd" clip-rule="evenodd" d="M369.898 0L380.465 10.1395L378.526 12L369.898 3.72108L361.271 12L359.332 10.1395L369.898 0Z" fill="#F1BF42"/>
<path fill-rule="evenodd" clip-rule="evenodd" d="M387.006 0L397.572 10.1395L395.633 12L387.006 3.72108L378.378 12L376.439 10.1395L387.006 0Z" fill="#F1BF42"/>
<path d="M404.113 3.72108L395.486 12L393.547 10.1395L404.113 0L406 1.81033L404.113 3.72108Z" fill="#F1BF42"/>
</svg>
