<svg width="235" height="9" viewBox="0 0 235 9" fill="none" xmlns="http://www.w3.org/2000/svg">
<path fill-rule="evenodd" clip-rule="evenodd" d="M7.71153 0L15.4231 7.6046L14.008 9L7.71153 2.79081L1.41503 9L0 7.6046L7.71153 0Z" fill="#1D1D1F"/>
<path fill-rule="evenodd" clip-rule="evenodd" d="M20.2428 0L27.9543 7.6046L26.5393 9L20.2428 2.79081L13.9463 9L12.5312 7.6046L20.2428 0Z" fill="#1D1D1F"/>
<path fill-rule="evenodd" clip-rule="evenodd" d="M32.774 0L40.4856 7.6046L39.0705 9L32.774 2.79081L26.4775 9L25.0625 7.6046L32.774 0Z" fill="#1D1D1F"/>
<path fill-rule="evenodd" clip-rule="evenodd" d="M45.3052 0L53.0167 7.6046L51.6017 9L45.3052 2.79081L39.0087 9L37.5936 7.6046L45.3052 0Z" fill="#1D1D1F"/>
<path fill-rule="evenodd" clip-rule="evenodd" d="M57.8365 0L65.5481 7.6046L64.133 9L57.8365 2.79081L51.54 9L50.125 7.6046L57.8365 0Z" fill="#1D1D1F"/>
<path fill-rule="evenodd" clip-rule="evenodd" d="M70.3677 0L78.0792 7.6046L76.6642 9L70.3677 2.79081L64.0712 9L62.6561 7.6046L70.3677 0Z" fill="#1D1D1F"/>
<path fill-rule="evenodd" clip-rule="evenodd" d="M82.8989 0L90.6104 7.6046L89.1954 9L82.8989 2.79081L76.6024 9L75.1874 7.6046L82.8989 0Z" fill="#1D1D1F"/>
<path fill-rule="evenodd" clip-rule="evenodd" d="M95.4302 0L103.142 7.6046L101.727 9L95.4302 2.79081L89.1337 9L87.7186 7.6046L95.4302 0Z" fill="#1D1D1F"/>
<path fill-rule="evenodd" clip-rule="evenodd" d="M108.108 0L115.819 7.6046L114.404 9L108.108 2.79081L101.811 9L100.396 7.6046L108.108 0Z" fill="#1D1D1F"/>
<path fill-rule="evenodd" clip-rule="evenodd" d="M120.639 0L128.35 7.6046L126.935 9L120.639 2.79081L114.342 9L112.927 7.6046L120.639 0Z" fill="#1D1D1F"/>
<path fill-rule="evenodd" clip-rule="evenodd" d="M133.17 0L140.882 7.6046L139.467 9L133.17 2.79081L126.874 9L125.459 7.6046L133.17 0Z" fill="#1D1D1F"/>
<path fill-rule="evenodd" clip-rule="evenodd" d="M145.701 0L153.413 7.6046L151.998 9L145.701 2.79081L139.405 9L137.99 7.6046L145.701 0Z" fill="#1D1D1F"/>
<path fill-rule="evenodd" clip-rule="evenodd" d="M158.233 0L165.944 7.6046L164.529 9L158.233 2.79081L151.936 9L150.521 7.6046L158.233 0Z" fill="#1D1D1F"/>
<path fill-rule="evenodd" clip-rule="evenodd" d="M170.764 0L178.475 7.6046L177.06 9L170.764 2.79081L164.467 9L163.052 7.6046L170.764 0Z" fill="#1D1D1F"/>
<path fill-rule="evenodd" clip-rule="evenodd" d="M183.295 0L191.007 7.6046L189.592 9L183.295 2.79081L176.999 9L175.583 7.6046L183.295 0Z" fill="#1D1D1F"/>
<path fill-rule="evenodd" clip-rule="evenodd" d="M195.826 0L203.538 7.6046L202.123 9L195.826 2.79081L189.53 9L188.115 7.6046L195.826 0Z" fill="#1D1D1F"/>
<path fill-rule="evenodd" clip-rule="evenodd" d="M208.537 0L216.248 7.6046L214.833 9L208.537 2.79081L202.24 9L200.825 7.6046L208.537 0Z" fill="#1D1D1F"/>
<path fill-rule="evenodd" clip-rule="evenodd" d="M221.068 0L228.779 7.6046L227.364 9L221.068 2.79081L214.771 9L213.356 7.6046L221.068 0Z" fill="#1D1D1F"/>
<path d="M233.599 2.79081L227.303 9L225.888 7.6046L233.599 0L235 1.38148L233.599 2.79081Z" fill="#1D1D1F"/>
</svg>
